<svg width="152" height="151" viewBox="0 0 152 151" fill="none" xmlns="http://www.w3.org/2000/svg">
<circle cx="75.5672" cy="75.4722" r="75.4722" fill="#E2E2E2"/>
<g clip-path="url(#clip0_2312_794)">
<path d="M53.0628 23.6611L82.2674 40.5248L47.7317 60.466V26.7385C47.7317 24.003 50.6926 22.2933 53.0628 23.6611Z" fill="#C6C6C6"/>
<path d="M52.6716 29.1152L72.403 40.508L52.6716 51.9007V29.1152Z" fill="#EDEDED"/>
<path d="M98.3608 23.6611L69.1562 40.5248L103.7 60.466V26.7385C103.7 24.003 100.739 22.2933 98.3686 23.6611" fill="#C6C6C6"/>
<path d="M98.7589 29.1152V51.9007L79.0276 40.508L98.7589 29.1152Z" fill="#EDEDED"/>
<path d="M75.7567 104.98C54.3234 104.98 45.5186 94.7219 45.5186 69.7449C45.5186 44.7679 54.3234 34.5098 75.7567 34.5098C97.19 34.5098 105.995 44.7679 105.995 69.7449C105.995 94.7219 97.19 104.98 75.7567 104.98Z" fill="#C6C6C6"/>
<path d="M65.3807 63.3837C65.3807 60.5337 63.0706 58.2324 60.2294 58.2324C57.3882 58.2324 55.0781 60.5425 55.0781 63.3837C55.0781 66.2249 57.3882 68.535 60.2294 68.535C63.0706 68.535 65.3807 66.2249 65.3807 63.3837Z" fill="#EDEDED"/>
<path d="M97.9534 63.3837C97.9534 60.5337 95.6433 58.2324 92.8022 58.2324C89.961 58.2324 87.6509 60.5425 87.6509 63.3837C87.6509 66.2249 89.961 68.535 92.8022 68.535C95.6433 68.535 97.9534 66.2249 97.9534 63.3837Z" fill="#EDEDED"/>
<path d="M78.9803 70.9512H74.3961C72.1983 70.9512 70.5746 73.0013 71.083 75.1417L71.7309 77.8889C72.0917 79.4225 73.4694 80.505 75.0439 80.505H78.3324C79.9069 80.505 81.2765 79.4225 81.6455 77.8889L82.2933 75.1417C82.8018 73.0013 81.178 70.9512 78.9803 70.9512Z" fill="#EDEDED"/>
</g>
<mask id="mask0_2312_794" style="mask-type:alpha" maskUnits="userSpaceOnUse" x="0" y="0" width="151" height="151">
<circle cx="75.4722" cy="75.4722" r="75.4722" fill="#E6E6E6"/>
</mask>
<g mask="url(#mask0_2312_794)">
<rect x="-9.18164" y="113.889" width="168.992" height="36.7374" fill="#0AC4B9"/>
</g>
<g clip-path="url(#clip1_2312_794)">
<path d="M76.0446 137.723C72.948 137.723 70.4383 135.209 70.4383 132.116C70.4383 129.024 72.9526 126.51 76.0446 126.51C79.1366 126.51 81.6508 129.024 81.6508 132.116C81.6508 135.208 79.1366 137.723 76.0446 137.723ZM76.0446 126.751C73.0917 126.751 70.6836 129.164 70.6836 132.112C70.6836 135.059 73.0969 137.472 76.0446 137.472C78.9923 137.472 81.4056 135.059 81.4056 132.112C81.4056 129.164 78.9923 126.751 76.0446 126.751Z" fill="white" stroke="white" stroke-width="0.973293"/>
<path d="M68.613 122.878H68.9422L69.0647 122.573L69.5531 121.354L69.5532 121.354L69.5545 121.351C69.9193 120.421 70.7562 119.856 71.7854 119.856H80.3162C81.2865 119.856 82.1829 120.464 82.5492 121.356C82.5494 121.356 82.5496 121.357 82.5499 121.358L83.0369 122.573L83.1594 122.878H83.4886H86.2693C87.6109 122.878 88.7084 123.976 88.7084 125.317V138.817C88.6641 140.17 87.5575 141.264 86.2209 141.264H86.2113H65.8323C64.4907 141.264 63.3931 140.166 63.3931 138.824V125.317C63.3931 123.976 64.4907 122.878 65.8323 122.878H68.613ZM82.9116 123.041L82.9114 123.04L82.2796 121.435C82.2793 121.434 82.279 121.433 82.2787 121.432C81.956 120.59 81.1265 120.096 80.263 120.096H71.7322C70.8491 120.096 70.0987 120.609 69.729 121.403L69.7201 121.422L69.7128 121.442L69.1309 123.043C69.1124 123.087 69.0949 123.101 69.0889 123.106C69.084 123.109 69.0621 123.124 68.9999 123.124H65.8323C64.635 123.124 63.6385 124.12 63.6385 125.317V138.824C63.6385 140.022 64.635 141.018 65.8323 141.018H86.2113C87.4085 141.018 88.405 140.022 88.405 138.824V125.317C88.405 124.12 87.4085 123.124 86.2113 123.124H83.0437C83.0182 123.124 82.9875 123.115 82.9606 123.098C82.9352 123.082 82.9197 123.062 82.9116 123.041Z" fill="white" stroke="white" stroke-width="0.973293"/>
</g>
<defs>
<clipPath id="clip0_2312_794">
<rect width="60.4763" height="81.7853" fill="white" transform="translate(45.5471 23.1797)"/>
</clipPath>
<clipPath id="clip1_2312_794">
<rect width="26.2789" height="22.3811" fill="white" transform="translate(62.9072 119.365)"/>
</clipPath>
</defs>
</svg>
