<svg width="750" height="750" viewBox="0 0 750 750" fill="none" xmlns="http://www.w3.org/2000/svg">
<circle cx="374.585" cy="374.585" r="374.585" fill="#E6E8E8"/>
<g clip-path="url(#clip0_2312_775)">
<path d="M259.985 176.656L407.399 261.778L233.075 362.434V192.19C233.075 178.382 248.021 169.753 259.985 176.656Z" fill="#C6C6C6"/>
<path d="M257.913 204.18L357.51 261.686L257.913 319.192V204.18Z" fill="#EDEDED"/>
<path d="M488.705 176.656L341.291 261.778L515.654 362.434V192.19C515.654 178.382 500.708 169.753 488.744 176.656" fill="#C6C6C6"/>
<path d="M490.713 204.18V319.192L391.116 261.686L490.713 204.18Z" fill="#EDEDED"/>
<path d="M374.494 587.114C266.307 587.114 221.863 535.335 221.863 409.26C221.863 283.186 266.307 231.406 374.494 231.406C482.682 231.406 527.126 283.186 527.126 409.26C527.126 535.335 482.682 587.114 374.494 587.114Z" fill="#C6C6C6"/>
<circle cx="868.585" cy="668.585" r="374.585" fill="#E6E8E8"/>
<path d="M322.006 377.213C322.006 362.827 310.345 351.211 296.004 351.211C281.663 351.211 270.002 362.872 270.002 377.213C270.002 391.554 281.663 403.214 296.004 403.214C310.345 403.214 322.006 391.554 322.006 377.213Z" fill="#EDEDED"/>
<path d="M486.431 377.213C486.431 362.827 474.771 351.211 460.43 351.211C446.088 351.211 434.428 362.872 434.428 377.213C434.428 391.554 446.088 403.214 460.43 403.214C474.771 403.214 486.431 391.554 486.431 377.213Z" fill="#EDEDED"/>
<path d="M390.703 415.438H367.564C356.47 415.438 348.274 425.786 350.84 436.59L354.11 450.457C355.932 458.197 362.886 463.662 370.834 463.662H387.433C395.38 463.662 402.293 458.197 404.156 450.457L407.426 436.59C409.992 425.786 401.796 415.438 390.703 415.438Z" fill="#EDEDED"/>
</g>
<defs>
<clipPath id="clip0_2312_775">
<rect width="305.262" height="412.822" fill="white" transform="translate(221.936 174.211)"/>
</clipPath>
</defs>
</svg>
